<svg width="28" height="28" viewBox="0 0 28 28" fill="none" xmlns="http://www.w3.org/2000/svg">
<g clip-path="url(#clip0_742_16198)">
<path d="M17.171 6.82899C17.5174 7.17693 17.7779 7.60081 17.932 8.06699L18.43 9.59699C18.4719 9.71467 18.5491 9.81651 18.6512 9.88852C18.7532 9.96054 18.8751 9.9992 19 9.9992C19.1249 9.9992 19.2467 9.96054 19.3488 9.88852C19.4509 9.81651 19.5281 9.71467 19.57 9.59699L20.068 8.06699C20.2227 7.60175 20.4839 7.17904 20.8308 6.83253C21.1776 6.48601 21.6006 6.22524 22.066 6.07099L23.596 5.57399C23.7137 5.53212 23.8155 5.45486 23.8875 5.3528C23.9595 5.25074 23.9982 5.1289 23.9982 5.00399C23.9982 4.87908 23.9595 4.75724 23.8875 4.65518C23.8155 4.55312 23.7137 4.47586 23.596 4.43399L23.566 4.42599L22.035 3.92899C21.5696 3.77473 21.1466 3.51397 20.7998 3.16745C20.4529 2.82093 20.1917 2.39823 20.037 1.93299L19.54 0.402989C19.4986 0.284853 19.4215 0.182501 19.3194 0.110088C19.2173 0.0376752 19.0952 -0.0012207 18.97 -0.0012207C18.8448 -0.0012207 18.7227 0.0376752 18.6206 0.110088C18.5185 0.182501 18.4414 0.284853 18.4 0.402989L17.902 1.93299L17.889 1.97099C17.7336 2.42463 17.4768 2.83681 17.138 3.17613C16.7992 3.51545 16.3874 3.77295 15.934 3.92899L14.404 4.42599C14.2863 4.46786 14.1845 4.54512 14.1125 4.64718C14.0404 4.74924 14.0018 4.87108 14.0018 4.99599C14.0018 5.1209 14.0404 5.24274 14.1125 5.3448C14.1845 5.44686 14.2863 5.52412 14.404 5.56599L15.934 6.06299C16.401 6.21899 16.824 6.48099 17.171 6.82899ZM25.821 10.358L26.739 10.656L26.758 10.66C26.8291 10.6846 26.8907 10.7308 26.9343 10.7921C26.9779 10.8534 27.0013 10.9268 27.0013 11.002C27.0013 11.0772 26.9779 11.1506 26.9343 11.2119C26.8907 11.2731 26.8291 11.3193 26.758 11.344L25.839 11.643C25.5603 11.7363 25.3071 11.8929 25.0992 12.1006C24.8914 12.3083 24.7345 12.5614 24.641 12.84L24.342 13.758C24.3169 13.8286 24.2705 13.8897 24.2093 13.9329C24.148 13.9761 24.0749 13.9993 24 13.9993C23.925 13.9993 23.8519 13.9761 23.7907 13.9329C23.7295 13.8897 23.6831 13.8286 23.658 13.758L23.359 12.84C23.2668 12.5601 23.1105 12.3057 22.9025 12.097C22.6945 11.8883 22.4406 11.7311 22.161 11.638L21.242 11.34C21.1709 11.3153 21.1093 11.2691 21.0657 11.2079C21.0221 11.1466 20.9986 11.0732 20.9986 10.998C20.9986 10.9228 21.0221 10.8494 21.0657 10.7881C21.1093 10.7268 21.1709 10.6806 21.242 10.656L22.161 10.357C22.4363 10.2613 22.6859 10.1036 22.8906 9.89607C23.0952 9.68851 23.2493 9.43665 23.341 9.15999L23.64 8.24199C23.6651 8.17138 23.7115 8.11028 23.7727 8.06707C23.8339 8.02386 23.907 8.00067 23.982 8.00067C24.0569 8.00067 24.13 8.02386 24.1913 8.06707C24.2525 8.11028 24.2989 8.17138 24.324 8.24199L24.622 9.15999C24.7149 9.43905 24.8717 9.69256 25.0799 9.90036C25.288 10.1082 25.5418 10.2655 25.821 10.358ZM11.5 2.99999C12.4311 2.99901 13.3561 3.15103 14.238 3.44999L14.089 3.49999C13.7691 3.60672 13.4921 3.81359 13.299 4.08999C13.1744 4.26399 13.086 4.46121 13.039 4.66999C11.6003 4.34616 10.0961 4.48496 8.74095 5.0666C7.38581 5.64823 6.24898 6.64299 5.49264 7.90894C4.73629 9.1749 4.39908 10.6474 4.5291 12.1163C4.65912 13.5853 5.24974 14.9756 6.2167 16.089C7.18365 17.2025 8.47754 17.9821 9.91377 18.3166C11.35 18.6512 12.8552 18.5236 14.2147 17.9521C15.5741 17.3806 16.7183 16.3943 17.4841 15.1341C18.2499 13.8738 18.598 12.4039 18.479 10.934C18.72 11.0145 18.9765 11.0379 19.2281 11.0023C19.4798 10.9667 19.7197 10.8732 19.929 10.729L19.963 10.701C19.9877 10.9643 20 11.2307 20 11.5C20 13.577 19.255 15.48 18.017 16.957L24.78 23.72C24.8537 23.7886 24.9128 23.8715 24.9538 23.9634C24.9948 24.0554 25.0168 24.1548 25.0186 24.2555C25.0204 24.3562 25.0018 24.4562 24.9641 24.5496C24.9264 24.643 24.8702 24.7278 24.799 24.799C24.7278 24.8702 24.643 24.9264 24.5496 24.9641C24.4562 25.0018 24.3562 25.0204 24.2555 25.0186C24.1548 25.0168 24.0554 24.9948 23.9634 24.9538C23.8715 24.9128 23.7886 24.8537 23.72 24.78L16.957 18.017C15.9096 18.894 14.6662 19.5057 13.3323 19.8002C11.9983 20.0946 10.613 20.0632 9.2937 19.7087C7.97443 19.3541 6.76005 18.6867 5.75346 17.7632C4.74686 16.8396 3.97769 15.687 3.51112 14.4031C3.04455 13.1191 2.89432 11.7416 3.07315 10.3873C3.25198 9.03293 3.75461 7.74165 4.53846 6.62281C5.32231 5.50397 6.36428 4.59054 7.5761 3.9599C8.78792 3.32926 10.1339 2.99999 11.5 2.99999Z" fill="currentColor"/>
</g>
<defs>
<clipPath id="clip0_742_16198">
<rect width="28" height="28" fill="white"/>
</clipPath>
</defs>
</svg>
