<svg width="24" height="24" viewBox="0 0 24 24" fill="none" xmlns="http://www.w3.org/2000/svg">
<path fill-rule="evenodd" clip-rule="evenodd" d="M10.4993 2C11.0793 2 11.6493 2.058 12.1983 2.17C12.4582 2.22278 12.6865 2.37664 12.833 2.59775C12.9794 2.81886 13.0321 3.08909 12.9793 3.349C12.9265 3.60891 12.7726 3.83721 12.5515 3.98368C12.3304 4.13014 12.0602 4.18278 11.8003 4.13C10.5408 3.87306 9.23335 3.99534 8.04333 4.48139C6.85331 4.96743 5.83412 5.7954 5.11463 6.86063C4.39513 7.92586 4.00764 9.1805 4.00113 10.4659C3.99463 11.7514 4.3694 13.0099 5.07808 14.0823C5.78676 15.1548 6.79752 15.993 7.98256 16.4911C9.1676 16.9892 10.4737 17.1247 11.7358 16.8805C12.9978 16.6363 14.1591 16.0234 15.0729 15.1193C15.9866 14.2152 16.6118 13.0604 16.8693 11.801C16.8954 11.6723 16.9466 11.55 17.02 11.4411C17.0934 11.3322 17.1875 11.2388 17.297 11.1663C17.4065 11.0938 17.5292 11.0435 17.6581 11.0184C17.787 10.9933 17.9196 10.9939 18.0483 11.02C18.177 11.0461 18.2993 11.0974 18.4082 11.1708C18.5171 11.2441 18.6104 11.3383 18.683 11.4477C18.7555 11.5572 18.8057 11.6799 18.8308 11.8088C18.8559 11.9377 18.8554 12.0703 18.8293 12.199C18.5857 13.3916 18.0888 14.518 17.3723 15.502L17.1753 15.762L20.8273 19.414C21.0085 19.5935 21.1143 19.8356 21.123 20.0905C21.1316 20.3455 21.0425 20.5942 20.8738 20.7856C20.7051 20.977 20.4697 21.0967 20.2157 21.1202C19.9616 21.1437 19.7082 21.0692 19.5073 20.912L19.4133 20.828L15.7613 17.176C14.6967 18.015 13.447 18.5872 12.1163 18.8449C10.7856 19.1026 9.4126 19.0384 8.11179 18.6576C6.81098 18.2768 5.6201 17.5904 4.63851 16.6557C3.65692 15.7211 2.91308 14.5652 2.46906 13.2846C2.02503 12.004 1.89368 10.6357 2.08599 9.29404C2.27829 7.95235 2.78866 6.67609 3.57451 5.57175C4.36037 4.46742 5.39893 3.56702 6.60353 2.94569C7.80814 2.32436 9.14387 2.00012 10.4993 2ZM18.9993 1C19.1864 1 19.3697 1.05248 19.5284 1.15147C19.6872 1.25046 19.815 1.392 19.8973 1.56L19.9453 1.677L20.0753 2.055C20.2125 2.45718 20.4336 2.82563 20.7239 3.13594C21.0142 3.44625 21.3671 3.69135 21.7593 3.855L21.9443 3.925L22.3223 4.054C22.5095 4.11786 22.6735 4.2358 22.7937 4.3929C22.9138 4.54999 22.9847 4.7392 22.9973 4.93658C23.01 5.13396 22.9638 5.33065 22.8646 5.50178C22.7655 5.67291 22.6178 5.8108 22.4403 5.898L22.3223 5.946L21.9443 6.076C21.5421 6.2132 21.1736 6.43428 20.8633 6.72459C20.553 7.01491 20.3079 7.36783 20.1443 7.76L20.0743 7.945L19.9453 8.323C19.8813 8.51014 19.7633 8.6741 19.6061 8.79416C19.449 8.91423 19.2597 8.98499 19.0624 8.99752C18.865 9.01004 18.6683 8.96376 18.4973 8.86452C18.3262 8.76528 18.1884 8.61755 18.1013 8.44L18.0533 8.323L17.9233 7.945C17.7861 7.54282 17.565 7.17437 17.2747 6.86406C16.9844 6.55375 16.6314 6.30865 16.2393 6.145L16.0543 6.075L15.6763 5.946C15.4891 5.88214 15.325 5.7642 15.2049 5.6071C15.0847 5.45001 15.0138 5.2608 15.0012 5.06342C14.9886 4.86604 15.0348 4.66935 15.1339 4.49822C15.2331 4.32709 15.3808 4.1892 15.5583 4.102L15.6763 4.054L16.0543 3.924C16.4565 3.7868 16.8249 3.56572 17.1352 3.27541C17.4455 2.98509 17.6906 2.63217 17.8543 2.24L17.9243 2.055L18.0533 1.677C18.1207 1.47959 18.2481 1.30818 18.4177 1.18679C18.5873 1.06539 18.7907 1.00008 18.9993 1ZM18.9993 4.196C18.7627 4.4937 18.493 4.76344 18.1953 5C18.4939 5.23667 18.7619 5.50467 18.9993 5.804C19.2359 5.50533 19.5039 5.23733 19.8033 5C19.5056 4.76344 19.2358 4.4937 18.9993 4.196Z" fill="#9CA3AF"/>
</svg>
