<svg width="19" height="18" viewBox="0 0 19 18" fill="none" xmlns="http://www.w3.org/2000/svg">
<mask id="mask0_0_2207" style="mask-type:alpha" maskUnits="userSpaceOnUse" x="2" y="-1" width="15" height="19">
<path d="M13.0797 0.00888582C13.0414 -0.0338642 11.6633 0.0257609 10.464 1.32739C9.26479 2.62789 9.44929 4.11964 9.47629 4.15789C9.50329 4.19614 11.1863 4.25576 12.2607 2.74264C13.335 1.22951 13.1179 0.0527608 13.0797 0.00888582ZM16.8079 13.2085C16.7539 13.1005 14.1923 11.8203 14.4308 9.35876C14.6693 6.89614 16.3152 6.22114 16.341 6.14801C16.3669 6.07489 15.6694 5.25926 14.9303 4.84639C14.3876 4.55529 13.787 4.38852 13.1719 4.35814C13.0504 4.35476 12.6285 4.25126 11.7612 4.48864C11.1897 4.64501 9.90154 5.15126 9.54717 5.17151C9.19167 5.19176 8.13417 4.58426 6.99679 4.42339C6.26892 4.28276 5.49717 4.57076 4.94479 4.79239C4.39354 5.01289 3.34504 5.64064 2.61154 7.30901C1.87804 8.97626 2.26167 11.6178 2.53617 12.439C2.81067 13.2591 3.23929 14.6035 3.96829 15.5845C4.61629 16.6915 5.47579 17.4599 5.83467 17.7209C6.19354 17.9819 7.20604 18.1551 7.90804 17.7963C8.47279 17.4498 9.49204 17.2506 9.89479 17.2653C10.2964 17.2799 11.0884 17.4385 11.8995 17.8716C12.5419 18.0933 13.1494 18.001 13.758 17.7535C14.3667 17.5049 15.2475 16.5621 16.2758 14.6508C16.6662 13.762 16.8439 13.2816 16.8079 13.2085Z" fill="white"/>
<path d="M13.0797 0.00888582C13.0414 -0.0338642 11.6633 0.0257609 10.464 1.32739C9.26479 2.62789 9.44929 4.11964 9.47629 4.15789C9.50329 4.19614 11.1863 4.25576 12.2607 2.74264C13.335 1.22951 13.1179 0.0527608 13.0797 0.00888582ZM16.8079 13.2085C16.7539 13.1005 14.1923 11.8203 14.4308 9.35876C14.6693 6.89614 16.3152 6.22114 16.341 6.14801C16.3669 6.07489 15.6694 5.25926 14.9303 4.84639C14.3876 4.55529 13.787 4.38852 13.1719 4.35814C13.0504 4.35476 12.6285 4.25126 11.7612 4.48864C11.1897 4.64501 9.90154 5.15126 9.54717 5.17151C9.19167 5.19176 8.13417 4.58426 6.99679 4.42339C6.26892 4.28276 5.49717 4.57076 4.94479 4.79239C4.39354 5.01289 3.34504 5.64064 2.61154 7.30901C1.87804 8.97626 2.26167 11.6178 2.53617 12.439C2.81067 13.2591 3.23929 14.6035 3.96829 15.5845C4.61629 16.6915 5.47579 17.4599 5.83467 17.7209C6.19354 17.9819 7.20604 18.1551 7.90804 17.7963C8.47279 17.4498 9.49204 17.2506 9.89479 17.2653C10.2964 17.2799 11.0884 17.4385 11.8995 17.8716C12.5419 18.0933 13.1494 18.001 13.758 17.7535C14.3667 17.5049 15.2475 16.5621 16.2758 14.6508C16.6662 13.762 16.8439 13.2816 16.8079 13.2085Z" fill="white"/>
</mask>
<g mask="url(#mask0_0_2207)">
<rect x="0.501465" width="18" height="18" fill="white"/>
</g>
</svg>
