<svg width="22" height="18" viewBox="0 0 22 18" fill="none" xmlns="http://www.w3.org/2000/svg">
<path d="M19.4111 12.0205C19.4111 15.5273 17.1084 17.8389 13.1797 17.8389H11.0703C10.499 17.8389 10.0947 17.4082 10.0947 16.8809C10.0947 16.3447 10.4902 15.9141 11.0703 15.9141H13.1182C15.9482 15.9141 17.5039 14.2354 17.5039 11.9414C17.5039 9.65625 15.9482 8.04785 13.1182 8.04785H7.51953L5.48047 7.95996L7.02734 9.26074L9.29492 11.4668C9.46191 11.6426 9.57617 11.8535 9.57617 12.1348C9.57617 12.6797 9.19824 13.0752 8.62695 13.0752C8.38965 13.0752 8.12598 12.9609 7.93262 12.7764L2.8877 7.80176C2.68555 7.6084 2.58008 7.35352 2.58008 7.08984C2.58008 6.82617 2.68555 6.5625 2.8877 6.37793L7.93262 1.40332C8.12598 1.21875 8.38965 1.10449 8.62695 1.10449C9.19824 1.10449 9.57617 1.5 9.57617 2.03613C9.57617 2.32617 9.46191 2.53711 9.29492 2.7041L7.02734 4.91016L5.48047 6.21973L7.51953 6.13184H13.0566C17.0557 6.13184 19.4111 8.53125 19.4111 12.0205Z" fill="white"/>
</svg>
