<svg width="24" height="25" viewBox="0 0 24 25" fill="none" xmlns="http://www.w3.org/2000/svg">
<path d="M21 18.8682V12.8682C21 7.8976 16.9706 3.86816 12 3.86816C7.02944 3.86816 3 7.8976 3 12.8682V18.8682M5.5 21.8682C4.11929 21.8682 3 20.7489 3 19.3682V17.3682C3 15.9875 4.11929 14.8682 5.5 14.8682C6.88071 14.8682 8 15.9875 8 17.3682V19.3682C8 20.7489 6.88071 21.8682 5.5 21.8682ZM18.5 21.8682C17.1193 21.8682 16 20.7489 16 19.3682V17.3682C16 15.9875 17.1193 14.8682 18.5 14.8682C19.8807 14.8682 21 15.9875 21 17.3682V19.3682C21 20.7489 19.8807 21.8682 18.5 21.8682Z" stroke="white" stroke-width="2" stroke-linecap="round" stroke-linejoin="round"/>
</svg>
