<svg width="22" height="22" viewBox="0 0 22 22" fill="none" xmlns="http://www.w3.org/2000/svg">
<path d="M17.5572 15.2882C17.5784 15.2882 17.9835 15.0455 18.4573 14.7488C18.9312 14.452 19.3095 14.1915 19.2982 14.1699C19.2868 14.1484 19.0592 13.8411 18.7924 13.4871C18.2567 12.7762 17.741 11.8364 17.5124 11.1547C16.8001 9.03005 17.1279 6.82378 18.4206 5.04291L18.7497 4.5894L18.1231 3.96279L17.4965 3.33613L17.0823 3.6313C14.3686 5.56522 11.1161 5.3427 8.23255 3.02593C8.04427 2.87463 7.88328 2.75787 7.87477 2.76638C7.79639 2.84475 6.81075 4.45631 6.81099 4.50566C6.81116 4.54135 6.98354 4.68731 7.19404 4.82991C9.52487 6.40919 12.1917 6.92412 14.2531 6.19305L14.7476 6.01769L7.8728 12.9175L3.52564 17.2805L4.79381 18.5487L9.16805 14.1903L16.0517 7.33181L15.8431 7.96889C15.3019 9.62157 15.5235 11.5802 16.4754 13.5549C16.7465 14.1175 17.477 15.2878 17.5572 15.2882Z" fill="white"/>
</svg>
