<svg width="33" height="33" viewBox="0 0 33 33" fill="none" xmlns="http://www.w3.org/2000/svg">
<mask id="mask0_1_5906" style="mask-type:alpha" maskUnits="userSpaceOnUse" x="0" y="3" width="33" height="27">
<path d="M11.9623 12.0348C11.9623 13.8757 10.5297 15.368 8.76241 15.368C6.99517 15.368 5.56253 13.8757 5.56253 12.0348C5.56253 10.194 6.99517 8.70164 8.76241 8.70164C10.5297 8.70164 11.9623 10.194 11.9623 12.0348Z" fill="#B4DBFF"/>
<path fill-rule="evenodd" clip-rule="evenodd" d="M0.500488 6.41358C0.500488 4.57271 1.93312 3.08038 3.70036 3.08038H29.2994C31.0666 3.08038 32.4992 4.57271 32.4992 6.41358V26.4128C32.4992 28.2536 31.0666 29.746 29.2994 29.746H27.1872C27.1802 29.746 27.1731 29.746 27.1661 29.746H4.42964C4.42361 29.746 4.41759 29.746 4.41157 29.746H3.70036C1.93312 29.746 0.500488 28.2536 0.500488 26.4128V6.41358ZM3.70036 5.58028H29.2994C29.7412 5.58028 30.0993 5.95336 30.0993 6.41358V16.8L23.1472 9.74682L11.3195 21.7463L7.83543 18.2116L2.90039 23.2184V6.41358C2.90039 5.95336 3.25855 5.58028 3.70036 5.58028Z" fill="#B4DBFF"/>
</mask>
<g mask="url(#mask0_1_5906)">
<rect x="0.500488" y="0.412903" width="31.9987" height="31.9987" fill="#B4DBFF"/>
</g>
</svg>
