<svg width="12" height="12" viewBox="0 0 12 12" fill="none" xmlns="http://www.w3.org/2000/svg">
<path d="M10.4453 1.003L10.4983 1L10.5633 1.004L10.6083 1.012L10.6698 1.0295L10.7233 1.0525L10.7733 1.081L10.8183 1.1145L10.8593 1.152L10.8853 1.1815L10.9263 1.2395L10.9523 1.2875C10.9757 1.3375 10.9907 1.39017 10.9973 1.4455L10.9998 1.4985C10.9998 1.53617 10.9958 1.57283 10.9878 1.6085L10.9703 1.67L7.70434 10.7085C7.64243 10.8433 7.54314 10.9575 7.41826 11.0375C7.29339 11.1175 7.14817 11.16 6.99984 11.16C6.86629 11.1603 6.73493 11.126 6.6185 11.0606C6.50207 10.9952 6.40453 10.9007 6.33534 10.7865L6.30284 10.723L4.62684 7.372L1.29184 5.704C1.16844 5.64756 1.06203 5.55972 0.98323 5.44925C0.904435 5.33877 0.856026 5.20955 0.842844 5.0745L0.839844 5C0.839844 4.72 0.990344 4.464 1.26034 4.315L1.33034 4.28L10.3388 1.027L10.3918 1.012L10.4453 1.003Z" fill="white" fill-opacity="0.8"/>
</svg>
