<svg width="121" height="192" viewBox="0 0 121 192" fill="none" xmlns="http://www.w3.org/2000/svg">
<path fill-rule="evenodd" clip-rule="evenodd" d="M60.5 0C93.6371 0 120.5 26.8629 120.5 60V132C120.5 165.137 93.6371 192 60.5 192C27.3629 192 0.5 165.137 0.5 132V60C0.5 26.8629 27.3629 0 60.5 0Z" fill="url(#paint0_linear_0_2168)"/>
<mask id="mask0_0_2168" style="mask-type:luminance" maskUnits="userSpaceOnUse" x="0" y="0" width="121" height="192">
<path fill-rule="evenodd" clip-rule="evenodd" d="M60.5 0C93.6371 0 120.5 26.8629 120.5 60V132C120.5 165.137 93.6371 192 60.5 192C27.3629 192 0.5 165.137 0.5 132V60C0.5 26.8629 27.3629 0 60.5 0Z" fill="white"/>
</mask>
<g mask="url(#mask0_0_2168)">
<path opacity="0.4" fill-rule="evenodd" clip-rule="evenodd" d="M32.2695 117.64L-4.03333 127.383V119.395C-4.03333 119.395 1.89734 122.056 5.53674 121.296C9.17614 120.536 10.3356 116.609 14.8857 115.52C19.0725 114.517 24.0236 116.995 31.4345 117.145L32.2695 117.64Z" fill="#0053A6" fill-opacity="0.4"/>
<path fill-rule="evenodd" clip-rule="evenodd" d="M50.3711 107.73L58.8757 105.444C65.7936 103.584 67.2404 108.285 67.2404 108.285L51.8108 112.415L44.6061 123.885L40.9672 124.735L43.2596 114.704L30.2052 118.198L24.8871 111.631C24.8871 111.631 25.8993 111.238 27.4089 111.409C28.9186 111.579 30.8184 112.987 30.8184 112.987L42.1316 109.945L35.1356 102.622L38.8576 101.6L50.3711 107.73Z" fill="#0053A6" fill-opacity="0.3"/>
<path opacity="0.4" fill-rule="evenodd" clip-rule="evenodd" d="M42.7255 84.423L-7.5 98.2496V86.9136C-7.5 86.9136 -0.898959 91.4894 5.74033 89.6114C12.3796 87.7333 12.3796 82.9603 18.6747 81.414C24.4673 79.9912 31.6236 84.7551 41.5702 83.7205L42.7255 84.423Z" fill="white"/>
<path fill-rule="evenodd" clip-rule="evenodd" d="M48.6072 61.5237L59.8017 73.2425L72.5118 69.772L54.1583 60L48.6072 61.5237Z" fill="#CBDCEB"/>
<path fill-rule="evenodd" clip-rule="evenodd" d="M33.322 74.961L41.2537 84.7551L96.4899 69.9698C96.4899 69.9698 94.3321 62.9583 84.0143 65.733L42.1683 76.9825C42.1683 76.9825 39.3348 74.8828 37.0832 74.629C34.8317 74.3753 33.322 74.961 33.322 74.961Z" fill="white"/>
<path fill-rule="evenodd" clip-rule="evenodd" d="M61.627 77.2332L57.3047 96.1465L62.732 94.8794L76.3222 73.2425L61.627 77.2332Z" fill="url(#paint1_linear_0_2168)"/>
<path fill-rule="evenodd" clip-rule="evenodd" d="M72.6362 44.82C72.551 45.014 72.3324 45.918 72.7345 46.3746C73.1367 46.8312 73.9865 46.574 73.9865 46.574L104.771 37.5856C104.771 37.5856 105.678 37.3337 105.808 36.6789C105.938 36.0241 105.538 35.5941 105.155 35.2148C102.545 32.6305 99.7359 31.6043 96.7277 32.1362C92.9769 32.7995 91.2986 34.7257 90.3911 35.7672C90.0466 36.1625 89.8133 36.4304 89.6197 36.4534C89.4676 36.4714 89.2011 36.4399 88.8535 36.3987C87.5939 36.2495 85.2688 35.9741 83.4562 37.4763C81.8423 38.8138 81.479 40.1729 81.2544 41.013C81.1571 41.3768 81.0858 41.6433 80.9503 41.7686C80.7843 41.922 80.3204 41.8469 79.6833 41.7437C78.5986 41.568 77.0116 41.3109 75.5364 41.9613C74.1769 42.5606 73.2102 43.5135 72.6362 44.82ZM-7.35164 161.111C-7.64425 160.761 -7.4266 160.182 -7.35164 160C-6.84667 158.772 -5.99617 157.876 -4.80015 157.312C-3.50227 156.701 -2.10603 156.943 -1.15174 157.108C-0.591139 157.205 -0.18305 157.276 -0.037014 157.131C0.0822463 157.014 0.14493 156.763 0.230507 156.421C0.428099 155.631 0.747736 154.354 2.16765 153.097C3.58239 151.844 5.62604 151.99 6.959 152.085C7.54327 152.127 7.991 152.159 8.18937 152.059C8.3591 151.974 8.62022 151.687 8.96993 151.303C9.96135 150.215 11.6648 148.345 14.0165 148.062C17.1977 147.68 19.2542 149.146 20.2291 149.91C21.204 150.674 21.9224 151.822 21.8244 152.391C21.7264 152.959 20.9977 153.202 20.9977 153.202L-6.49366 161.26C-6.49366 161.26 -7.05903 161.461 -7.35164 161.111ZM73.9568 174.423C73.7225 174.076 73.8796 173.484 73.9568 173.305C74.4769 172.097 75.3529 171.216 76.5847 170.663C77.9214 170.061 79.3594 170.299 80.3423 170.461C80.9196 170.557 81.34 170.626 81.4904 170.484C81.597 170.384 81.5222 170.133 81.4147 169.771C81.1125 168.756 80.5516 166.872 83.0326 165.02C85.6944 163.034 90.6885 164.239 92.9729 164.791C93.5754 164.936 93.9894 165.036 94.1224 165.02C94.2982 164.999 94.3362 164.788 94.3924 164.476C94.5401 163.658 94.8138 162.14 98.0372 161.508C102.489 160.635 106.298 163.301 106.707 163.747C107.117 164.194 107.25 164.514 107.117 164.982C106.983 165.45 106.246 165.677 106.246 165.677L74.7853 174.622C74.7853 174.622 74.1911 174.77 73.9568 174.423Z" fill="#0053A6" fill-opacity="0.2"/>
<path fill-rule="evenodd" clip-rule="evenodd" d="M75.3517 29.5769C75.236 29.8428 74.9389 31.0823 75.4853 31.7083C76.0316 32.3344 77.1862 31.9817 77.1862 31.9817L119.012 19.6581C119.012 19.6581 120.245 19.3127 120.421 18.415C120.598 17.5172 120.054 16.9277 119.534 16.4077C115.988 12.8644 112.171 11.4574 108.084 12.1867C102.988 13.0961 100.707 15.7371 99.4745 17.165C99.0065 17.707 98.6895 18.0743 98.4265 18.1058C98.2198 18.1306 97.8578 18.0873 97.3855 18.0308C95.6741 17.8263 92.5151 17.4487 90.0523 19.5083C87.8596 21.3421 87.366 23.2054 87.0608 24.3573C86.9287 24.8561 86.8319 25.2215 86.6477 25.3933C86.4222 25.6037 85.792 25.5006 84.9262 25.3591C83.4525 25.1182 81.2963 24.7657 79.292 25.6575C77.445 26.4792 76.1316 27.7857 75.3517 29.5769ZM-11.3728 148.492C-11.8247 147.982 -11.4886 147.137 -11.3728 146.871C-10.593 145.08 -9.27957 143.774 -7.43255 142.952C-5.42824 142.06 -3.27204 142.413 -1.79833 142.654C-0.932589 142.795 -0.302379 142.898 -0.0768547 142.688C0.107319 142.516 0.204122 142.151 0.336277 141.652C0.641418 140.5 1.13503 138.637 3.3278 136.803C5.51259 134.976 8.66859 135.189 10.7271 135.328H10.7271C11.6294 135.389 12.3208 135.435 12.6271 135.29C12.8892 135.165 13.2925 134.747 13.8325 134.187L13.8325 134.187C15.3636 132.6 17.9942 129.873 21.6259 129.46C26.5387 128.903 29.7145 131.041 31.2201 132.155C32.7257 133.269 33.835 134.944 33.6837 135.773C33.5323 136.602 32.407 136.957 32.407 136.957L-10.0478 148.709C-10.0478 148.709 -10.9209 149.003 -11.3728 148.492ZM75.3518 160.753C75.0005 160.237 75.236 159.359 75.3518 159.093C76.1316 157.302 77.445 155.995 79.2921 155.174C81.2964 154.282 83.4526 154.634 84.9263 154.875C85.792 155.017 86.4222 155.12 86.6478 154.909C86.8077 154.76 86.6956 154.388 86.5343 153.852C86.0812 152.345 85.2402 149.55 88.9603 146.803C92.9514 143.856 100.44 145.645 103.865 146.463C104.768 146.679 105.389 146.827 105.589 146.803C105.852 146.771 105.909 146.459 105.993 145.996C106.215 144.781 106.625 142.53 111.459 141.592C118.133 140.297 123.845 144.252 124.459 144.915C125.073 145.577 125.273 146.052 125.073 146.746C124.873 147.441 123.767 147.778 123.767 147.778L76.594 161.048C76.594 161.048 75.7031 161.268 75.3518 160.753Z" fill="white"/>
</g>
<defs>
<linearGradient id="paint0_linear_0_2168" x1="3.17296" y1="8.55346" x2="3.17296" y2="192" gradientUnits="userSpaceOnUse">
<stop stop-color="#2D91E0"/>
<stop offset="1" stop-color="#68B4E8"/>
</linearGradient>
<linearGradient id="paint1_linear_0_2168" x1="58.7992" y1="71.0718" x2="49.0688" y2="89.0133" gradientUnits="userSpaceOnUse">
<stop stop-color="#DBE5E8"/>
<stop offset="1" stop-color="#91D3FF"/>
</linearGradient>
</defs>
</svg>
