<svg width="16" height="16" viewBox="0 0 16 16" fill="none" xmlns="http://www.w3.org/2000/svg">
<path d="M6 14H10M12 6.5V7.5C12 9.7 10.2 11.5 8 11.5M8 11.5C5.8 11.5 4 9.7 4 7.5V6.5M8 11.5V14" stroke="black" stroke-linecap="round" stroke-linejoin="round"/>
<path d="M8.00002 10C7.67003 9.99925 7.34356 9.93218 7.03999 9.80281C6.73642 9.67344 6.46193 9.48439 6.23283 9.24689C5.76385 8.77387 5.5005 8.13487 5.50002 7.46877V4.00002C5.49874 3.67136 5.56253 3.34569 5.68771 3.0418C5.81289 2.7379 5.99699 2.4618 6.2294 2.2294C6.4618 1.99699 6.7379 1.81289 7.0418 1.68771C7.34569 1.56253 7.67136 1.49874 8.00002 1.50002C9.40189 1.50002 10.5 2.59814 10.5 4.00002V7.46877C10.5 8.86439 9.37846 10 8.00002 10Z" fill="black"/>
</svg>
