<svg width="24" height="24" viewBox="0 0 24 24" fill="none" xmlns="http://www.w3.org/2000/svg">
<path d="M13.854 15.146C14.1656 15.4592 14.4001 15.8406 14.539 16.26L14.987 17.637C15.0245 17.7431 15.0939 17.835 15.1858 17.9C15.2777 17.965 15.3874 18 15.5 18C15.6126 18 15.7223 17.965 15.8142 17.9C15.9061 17.835 15.9755 17.7431 16.013 17.637L16.461 16.26C16.6006 15.8415 16.8358 15.4614 17.1479 15.1496C17.46 14.8379 17.8404 14.6031 18.259 14.464L19.637 14.016C19.7423 13.9779 19.8334 13.9082 19.8977 13.8165C19.9621 13.7248 19.9966 13.6155 19.9966 13.5035C19.9966 13.3914 19.9621 13.2821 19.8977 13.1904C19.8334 13.0987 19.7423 13.0291 19.637 12.991L19.609 12.984L18.231 12.536C17.8124 12.3968 17.432 12.1621 17.1199 11.8503C16.8078 11.5386 16.5726 11.1584 16.433 10.74L15.986 9.36298C15.9488 9.25649 15.8793 9.16422 15.7873 9.09893C15.6953 9.03364 15.5853 8.99857 15.4725 8.99857C15.3597 8.99857 15.2497 9.03364 15.1577 9.09893C15.0657 9.16422 14.9962 9.25649 14.959 9.36298L14.511 10.74L14.5 10.774C14.3599 11.182 14.1287 11.5527 13.8239 11.858C13.5191 12.1633 13.1488 12.3952 12.741 12.536L11.363 12.984C11.2577 13.0221 11.1666 13.0917 11.1023 13.1834C11.0379 13.2751 11.0034 13.3844 11.0034 13.4965C11.0034 13.6085 11.0379 13.7178 11.1023 13.8095C11.1666 13.9012 11.2577 13.9709 11.363 14.009L12.741 14.457C13.161 14.597 13.541 14.833 13.854 15.146ZM16 5.99998V8.09298C15.7496 8.00154 15.4797 7.97669 15.2167 8.02087C14.9538 8.06504 14.7068 8.17672 14.5 8.34498V5.99998C14.5 5.33694 14.2366 4.70105 13.7678 4.23221C13.2989 3.76337 12.663 3.49998 12 3.49998C11.337 3.49998 10.7011 3.76337 10.2322 4.23221C9.76339 4.70105 9.5 5.33694 9.5 5.99998V12C9.5 12.563 9.686 13.082 10 13.5C10 13.819 10.0991 14.1302 10.2836 14.3905C10.4682 14.6508 10.729 14.8473 11.03 14.953L11.043 14.957L12.428 15.407C12.692 15.495 12.933 15.643 13.132 15.837C12.5354 16.013 11.9059 16.0475 11.2936 15.9376C10.6813 15.8278 10.103 15.5766 9.6048 15.2041C9.10657 14.8316 8.7021 14.348 8.42352 13.7918C8.14493 13.2356 7.99992 12.6221 8 12V6.00098C8 4.94011 8.42143 3.92269 9.17157 3.17255C9.92172 2.4224 10.9391 2.00098 12 2.00098C13.0609 2.00098 14.0783 2.4224 14.8284 3.17255C15.5786 3.92269 16 4.93911 16 5.99998ZM12.25 17.501C12.7803 17.5007 13.3075 17.4208 13.814 17.264L14.04 17.959L14.044 17.971C14.133 18.223 14.286 18.447 14.486 18.621C13.9262 18.8179 13.3428 18.9397 12.751 18.983L12.75 21.251C12.7499 21.441 12.6778 21.6239 12.548 21.7628C12.4183 21.9016 12.2407 21.9861 12.0511 21.999C11.8615 22.012 11.6741 21.9525 11.5267 21.8325C11.3793 21.7126 11.2829 21.5412 11.257 21.353L11.25 21.251V18.983C9.59151 18.8598 8.03687 18.1287 6.88421 16.9299C5.73155 15.7311 5.06201 14.149 5.004 12.487L5 12.25V11.75C5.00006 11.56 5.07224 11.377 5.20197 11.2382C5.3317 11.0993 5.5093 11.0149 5.69888 11.002C5.88846 10.989 6.07589 11.0485 6.2233 11.1684C6.37071 11.2883 6.4671 11.4597 6.493 11.648L6.5 11.75V12.25C6.49989 13.605 7.02372 14.9077 7.96194 15.8854C8.90015 16.8631 10.1801 17.4402 11.534 17.496L11.75 17.5L12.25 17.501ZM22.017 18.966L22.783 19.214L22.798 19.218C22.8421 19.2335 22.882 19.2591 22.9146 19.2927C22.9472 19.3263 22.9715 19.3669 22.9858 19.4115C23 19.456 23.0037 19.5033 22.9967 19.5495C22.9896 19.5957 22.9719 19.6397 22.945 19.678C22.9087 19.7291 22.8573 19.7676 22.798 19.788L22.033 20.036C21.8002 20.1134 21.5886 20.244 21.4151 20.4174C21.2415 20.5908 21.1107 20.8023 21.033 21.035L20.785 21.799C20.7643 21.858 20.7258 21.9092 20.6747 21.9454C20.6236 21.9816 20.5626 22.0011 20.5 22.0011C20.4374 22.0011 20.3764 21.9816 20.3253 21.9454C20.2742 21.9092 20.2357 21.858 20.215 21.799L19.966 21.035C19.8888 20.8018 19.7583 20.5898 19.5849 20.4159C19.4115 20.242 19.1999 20.1109 18.967 20.033L18.202 19.784C18.1579 19.7684 18.118 19.7428 18.0854 19.7093C18.0528 19.6757 18.0285 19.635 18.0142 19.5905C18 19.5459 17.9963 19.4987 18.0033 19.4524C18.0104 19.4062 18.0281 19.3622 18.055 19.324C18.0913 19.2728 18.1427 19.2344 18.202 19.214L18.967 18.966C19.1967 18.8865 19.405 18.7551 19.5757 18.5821C19.7464 18.409 19.8748 18.1988 19.951 17.968L20.2 17.203C20.2207 17.1439 20.2592 17.0927 20.3103 17.0565C20.3614 17.0203 20.4224 17.0009 20.485 17.0009C20.5476 17.0009 20.6086 17.0203 20.6597 17.0565C20.7107 17.0927 20.7493 17.1439 20.77 17.203L21.019 17.967C21.0966 18.1996 21.2272 18.411 21.4006 18.5844C21.574 18.7577 21.7844 18.8884 22.017 18.966Z" fill="white"/>
</svg>
