<svg width="16" height="16" viewBox="0 0 16 16" fill="none" xmlns="http://www.w3.org/2000/svg">
<path d="M9 6.03125C9 6.03125 9.38063 5.84375 8 5.84375C7.50555 5.84375 7.0222 5.99037 6.61108 6.26508C6.19995 6.53978 5.87952 6.93023 5.6903 7.38704C5.50108 7.84386 5.45157 8.34652 5.54804 8.83148C5.6445 9.31643 5.8826 9.76189 6.23223 10.1115C6.58187 10.4611 7.02732 10.6993 7.51228 10.7957C7.99723 10.8922 8.4999 10.8427 8.95671 10.6534C9.41353 10.4642 9.80397 10.1438 10.0787 9.73268C10.3534 9.32155 10.5 8.8382 10.5 8.34375" stroke="black" stroke-width="0.875" stroke-miterlimit="10" stroke-linecap="round"/>
<path d="M8 4.65625L9.25 5.90625L8 7.15625" stroke="black" stroke-width="0.875" stroke-linecap="round" stroke-linejoin="round"/>
<path d="M8 2C4.6875 2 2 4.6875 2 8C2 11.3125 4.6875 14 8 14C11.3125 14 14 11.3125 14 8C14 4.6875 11.3125 2 8 2Z" stroke="black" stroke-miterlimit="10"/>
</svg>
