<svg width="16" height="16" viewBox="0 0 16 16" fill="none" xmlns="http://www.w3.org/2000/svg">
<path d="M6.26914 2.37707C5.95195 2.44238 5.72434 2.72162 5.72434 3.04546V5.7869C5.72434 5.78722 5.72464 5.78747 5.72496 5.7874C5.72528 5.78734 5.72557 5.78758 5.72557 5.7879V10.5644C5.72557 10.5801 5.72569 10.5965 5.72582 10.6133C5.7284 10.9621 5.73263 11.5338 4.70197 11.588C3.62236 11.6448 2.54276 12.3829 2.54102 13.2918C2.54102 13.2931 2.54193 13.2942 2.54318 13.2944C2.54451 13.2946 2.54544 13.2958 2.54534 13.2971C2.54247 13.3337 2.54102 13.3706 2.54102 13.4077C2.54102 14.2871 3.35574 15 4.36076 15C4.66906 15 4.95946 14.9329 5.21392 14.8145C5.87775 14.5999 6.52171 14.0463 6.52171 12.6685V5.90147C6.52171 5.73955 6.63552 5.59993 6.79411 5.56728L12.2528 4.44344C12.4644 4.39987 12.6628 4.56154 12.6628 4.77764V9.14269C12.6628 9.15842 12.6629 9.17476 12.663 9.19161C12.6656 9.54036 12.6698 10.1121 11.6392 10.1663C10.5595 10.2231 9.47995 10.9612 9.4782 11.8701C9.4782 11.8714 9.47912 11.8725 9.48036 11.8727C9.48169 11.8729 9.48263 11.8741 9.48252 11.8754C9.47966 11.912 9.4782 11.9489 9.4782 11.986C9.4782 12.8654 10.2929 13.5783 11.2979 13.5783C11.6062 13.5783 11.8966 13.5112 12.1511 13.3928C12.8149 13.1782 13.4589 12.6246 13.4589 11.2468V3.9681C13.4591 3.9681 13.4589 3.96793 13.4589 3.9681C13.4587 3.9681 13.4583 3.96765 13.4583 3.96747V1.4551C13.4583 1.16696 13.1938 0.951405 12.9116 1.00951L6.26914 2.37707Z" fill="white"/>
</svg>
