<svg width="25" height="24" viewBox="0 0 25 24" fill="none" xmlns="http://www.w3.org/2000/svg">
<path d="M13.3226 3.82111C13.3226 3.37835 12.9435 3 12.5 3C12.0565 3 11.6855 3.37835 11.6855 3.82111V5.45528C11.6855 5.89803 12.0565 6.26834 12.5 6.26834C12.9435 6.26834 13.3226 5.89803 13.3226 5.45528V3.82111ZM16.5484 6.81574C16.2339 7.1297 16.2339 7.65295 16.5565 7.96691C16.8629 8.28086 17.3952 8.28086 17.7097 7.95886L18.871 6.79964C19.1855 6.49374 19.1855 5.95438 18.871 5.64043C18.5565 5.33453 18.0323 5.33453 17.7177 5.64848L16.5484 6.81574ZM7.29032 7.95886C7.59677 8.28086 8.12903 8.28086 8.44355 7.96691C8.75806 7.661 8.75806 7.12165 8.45161 6.81574L7.29032 5.64848C6.98387 5.34258 6.45161 5.33453 6.1371 5.64043C5.82258 5.95438 5.82258 6.49374 6.12903 6.79159L7.29032 7.95886ZM12.5 7.7576C10.1774 7.7576 8.25 9.67352 8.25 12C8.25 14.3265 10.1774 16.2424 12.5 16.2424C14.8226 16.2424 16.7419 14.3265 16.7419 12C16.7419 9.67352 14.8226 7.7576 12.5 7.7576ZM20.6855 12.8211C21.129 12.8211 21.5 12.4428 21.5 12C21.5 11.5572 21.129 11.1869 20.6855 11.1869H19.0484C18.6048 11.1869 18.2339 11.5572 18.2339 12C18.2339 12.4428 18.6048 12.8211 19.0484 12.8211H20.6855ZM4.32258 11.1869C3.87097 11.1869 3.5 11.5572 3.5 12C3.5 12.4428 3.87097 12.8211 4.32258 12.8211H5.95161C6.39516 12.8211 6.77419 12.4428 6.77419 12C6.77419 11.5572 6.39516 11.1869 5.95161 11.1869H4.32258ZM17.7016 16.0411C17.3871 15.7272 16.8629 15.7352 16.5484 16.0492C16.2339 16.3551 16.2339 16.8784 16.5565 17.2004L17.7258 18.3596C18.0323 18.6735 18.5645 18.6655 18.879 18.3515C19.1855 18.0376 19.1855 17.5143 18.871 17.2004L17.7016 16.0411ZM6.12903 17.1923C5.81452 17.5063 5.80645 18.0376 6.1129 18.3435C6.42742 18.6574 6.96774 18.6655 7.27419 18.3596L8.44355 17.2004C8.75806 16.8864 8.75806 16.3551 8.45161 16.0492C8.1371 15.7352 7.60484 15.7352 7.29032 16.0411L6.12903 17.1923ZM13.3226 18.5447C13.3226 18.102 12.9435 17.7317 12.5 17.7317C12.0565 17.7317 11.6855 18.102 11.6855 18.5447V20.1789C11.6855 20.6216 12.0565 21 12.5 21C12.9435 21 13.3226 20.6216 13.3226 20.1789V18.5447Z" fill="#FFD409"/>
</svg>
