<svg width="25" height="24" viewBox="0 0 25 24" fill="none" xmlns="http://www.w3.org/2000/svg">
<path d="M6.49958 20.0004L15.3686 11.1314C15.7646 10.7354 15.9627 10.5373 16.191 10.4632C16.3918 10.3979 16.6082 10.3979 16.809 10.4632C17.0373 10.5373 17.2354 10.7354 17.6314 11.1314L21.9053 15.4053M11 8.5C11 9.60457 10.1046 10.5 9 10.5C7.89543 10.5 7 9.60457 7 8.5C7 7.39543 7.89543 6.5 9 6.5C10.1046 6.5 11 7.39543 11 8.5ZM22.5 12C22.5 17.5228 18.0228 22 12.5 22C6.97715 22 2.5 17.5228 2.5 12C2.5 6.47715 6.97715 2 12.5 2C18.0228 2 22.5 6.47715 22.5 12Z" stroke="white" stroke-width="2" stroke-linecap="round" stroke-linejoin="round"/>
</svg>
