<svg width="36" height="37" viewBox="0 0 36 37" fill="none" xmlns="http://www.w3.org/2000/svg">
<path d="M16.5312 28.8516C17 28.8516 17.3633 28.4883 17.3633 28.0312V8.09766C17.3633 7.64062 17 7.27734 16.5312 7.27734C16.0625 7.27734 15.7109 7.64062 15.7109 8.09766V28.0312C15.7109 28.4883 16.0625 28.8516 16.5312 28.8516ZM23.3516 26.5078C23.8203 26.5078 24.1719 26.1328 24.1719 25.6758V10.4531C24.1719 9.99609 23.8203 9.62109 23.3516 9.62109C22.8711 9.62109 22.5195 9.99609 22.5195 10.4531V25.6758C22.5195 26.1328 22.8711 26.5078 23.3516 26.5078ZM13.1211 24.6094C13.6016 24.6094 13.9531 24.2461 13.9531 23.7891V12.3398C13.9531 11.8828 13.6016 11.5195 13.1211 11.5195C12.6523 11.5195 12.3008 11.8828 12.3008 12.3398V23.7891C12.3008 24.2461 12.6523 24.6094 13.1211 24.6094ZM19.9414 23.3438C20.4102 23.3438 20.7617 22.9805 20.7617 22.5234V13.6055C20.7617 13.1484 20.4102 12.7852 19.9414 12.7852C19.4727 12.7852 19.1094 13.1484 19.1094 13.6055V22.5234C19.1094 22.9805 19.4727 23.3438 19.9414 23.3438ZM26.7617 21.2461C27.2305 21.2461 27.582 20.8711 27.582 20.4141V15.7148C27.582 15.2578 27.2305 14.8828 26.7617 14.8828C26.2812 14.8828 25.9297 15.2578 25.9297 15.7148V20.4141C25.9297 20.8711 26.2812 21.2461 26.7617 21.2461ZM9.72266 20.3203C10.1914 20.3203 10.543 19.957 10.543 19.5V16.6289C10.543 16.1719 10.1914 15.8086 9.72266 15.8086C9.24219 15.8086 8.89062 16.1719 8.89062 16.6289V19.5C8.89062 19.957 9.24219 20.3203 9.72266 20.3203Z" fill="#006FFD"/>
</svg>
